# Blender 4.1.1
# www.blender.org
mtllib AL4_Player.mtl
o 球
v -0.137950 0.313851 -0.137950
v -0.270598 0.295641 -0.270598
v -0.392847 0.266070 -0.392847
v -0.500000 0.226274 -0.500000
v -0.587938 0.177782 -0.587938
v -0.653281 0.122459 -0.653281
v -0.693520 0.062429 -0.693520
v -0.707107 0.000000 -0.707107
v -0.693520 -0.062429 -0.693520
v -0.653281 -0.122459 -0.653281
v -0.587938 -0.177782 -0.587938
v -0.500000 -0.226274 -0.500000
v -0.392847 -0.266070 -0.392847
v -0.270598 -0.295641 -0.270598
v -0.137950 -0.313851 -0.137950
v 0.000000 0.313851 -0.195090
v 0.000000 0.295641 -0.382683
v 0.000000 0.266070 -0.555570
v 0.000000 0.226274 -0.707107
v 0.000000 0.177782 -0.831470
v 0.000000 0.122459 -0.923879
v 0.000000 0.062429 -0.980785
v 0.000000 0.000000 -1.000000
v 0.000000 -0.062429 -0.980785
v 0.000000 -0.122459 -0.923879
v 0.000000 -0.177782 -0.831470
v 0.000000 -0.226274 -0.707107
v 0.000000 -0.266070 -0.555570
v -0.000000 -0.295641 -0.382683
v -0.000000 -0.313851 -0.195090
v 0.137950 0.313851 -0.137950
v 0.270598 0.295641 -0.270598
v 0.392847 0.266070 -0.392847
v 0.500000 0.226274 -0.500000
v 0.587938 0.177782 -0.587938
v 0.653281 0.122459 -0.653281
v 0.693520 0.062429 -0.693520
v 0.707107 -0.000000 -0.707107
v 0.693520 -0.062429 -0.693520
v 0.653281 -0.122459 -0.653281
v 0.587938 -0.177782 -0.587938
v 0.500000 -0.226274 -0.500000
v 0.392847 -0.266070 -0.392847
v 0.270598 -0.295641 -0.270598
v 0.137950 -0.313851 -0.137950
v 0.195090 0.313851 0.000000
v 0.382683 0.295641 0.000000
v 0.555570 0.266070 0.000000
v 0.707107 0.226274 0.000000
v 0.831469 0.177782 0.000000
v 0.923879 0.122459 0.000000
v 0.980785 0.062429 0.000000
v 1.000000 -0.000000 0.000000
v 0.980785 -0.062429 0.000000
v 0.923879 -0.122459 0.000000
v 0.831469 -0.177782 0.000000
v 0.707107 -0.226274 0.000000
v 0.555570 -0.266070 0.000000
v 0.382683 -0.295641 0.000000
v 0.195090 -0.313851 0.000000
v 0.137950 0.313851 0.137950
v 0.270598 0.295641 0.270598
v 0.392847 0.266070 0.392847
v 0.500000 0.226274 0.500000
v 0.587938 0.177782 0.587938
v 0.653281 0.122459 0.653281
v 0.693520 0.062429 0.693520
v 0.707107 -0.000000 0.707107
v 0.693520 -0.062429 0.693520
v 0.653281 -0.122459 0.653281
v 0.587938 -0.177782 0.587938
v 0.500000 -0.226274 0.500000
v 0.392847 -0.266070 0.392847
v 0.270598 -0.295641 0.270598
v 0.137950 -0.313851 0.137950
v 0.000000 0.313851 0.195090
v 0.000000 0.295641 0.382683
v -0.000000 0.266070 0.555570
v -0.000000 0.226274 0.707107
v -0.000000 0.177782 0.831469
v -0.000000 0.122459 0.923879
v -0.000000 0.062429 0.980785
v -0.000000 0.000000 1.000000
v -0.000000 -0.062429 0.980785
v -0.000000 -0.122459 0.923879
v -0.000000 -0.177782 0.831469
v -0.000000 -0.226274 0.707107
v -0.000000 -0.266070 0.555570
v -0.000000 -0.295641 0.382683
v -0.000000 -0.313851 0.195090
v -0.137950 0.313851 0.137950
v -0.270598 0.295641 0.270598
v -0.392847 0.266070 0.392847
v -0.500000 0.226274 0.500000
v -0.587938 0.177782 0.587938
v -0.653281 0.122459 0.653281
v -0.693520 0.062429 0.693520
v -0.707107 0.000000 0.707107
v -0.693520 -0.062429 0.693520
v -0.653281 -0.122459 0.653281
v -0.587938 -0.177782 0.587938
v -0.500000 -0.226274 0.500000
v -0.392847 -0.266070 0.392847
v -0.270598 -0.295641 0.270598
v -0.137950 -0.313851 0.137950
v -0.000000 -0.320000 -0.000000
v 0.000000 0.320000 0.000000
v -0.195090 0.313851 -0.000000
v -0.382683 0.295641 -0.000000
v -0.555570 0.266070 -0.000000
v -0.707107 0.226274 -0.000000
v -0.831469 0.177782 -0.000000
v -0.923879 0.122459 -0.000000
v -0.980785 0.062429 -0.000000
v -1.000000 0.000000 -0.000000
v -0.980785 -0.062429 -0.000000
v -0.923879 -0.122459 -0.000000
v -0.831469 -0.177782 -0.000000
v -0.707107 -0.226274 -0.000000
v -0.555570 -0.266070 -0.000000
v -0.382683 -0.295641 -0.000000
v -0.195090 -0.313851 -0.000000
v -0.400000 -0.300000 -0.100000
v -0.400000 -0.300000 0.700000
v -0.375000 -0.256699 -0.100000
v -0.375000 -0.256699 0.700000
v -0.325000 -0.256699 -0.100000
v -0.325000 -0.256699 0.700000
v -0.300000 -0.300000 -0.100000
v -0.300000 -0.300000 0.700000
v -0.325000 -0.343301 -0.100000
v -0.325000 -0.343301 0.700000
v -0.375000 -0.343301 -0.100000
v -0.375000 -0.343301 0.700000
v 0.300000 -0.300000 -0.100000
v 0.300000 -0.300000 0.700000
v 0.325000 -0.256699 -0.100000
v 0.325000 -0.256699 0.700000
v 0.375000 -0.256699 -0.100000
v 0.375000 -0.256699 0.700000
v 0.400000 -0.300000 -0.100000
v 0.400000 -0.300000 0.700000
v 0.375000 -0.343301 -0.100000
v 0.375000 -0.343301 0.700000
v 0.325000 -0.343301 -0.100000
v 0.325000 -0.343301 0.700000
vn -0.2526 -0.9619 -0.1046
vn -0.5024 0.8392 -0.2081
vn -0.1682 -0.9833 -0.0697
vn -0.6950 0.6588 -0.2879
vn -0.0965 -0.9945 -0.0400
vn -0.8886 0.2735 -0.3681
vn -0.0315 0.9994 -0.0130
vn -0.0315 -0.9994 -0.0130
vn -0.8886 -0.2735 -0.3681
vn -0.0965 0.9945 -0.0400
vn -0.6950 -0.6588 -0.2879
vn -0.1682 0.9833 -0.0697
vn -0.5024 -0.8392 -0.2081
vn -0.2526 0.9619 -0.1046
vn -0.3592 -0.9213 -0.1488
vn -0.3592 0.9213 -0.1488
vn -0.1488 -0.9213 -0.3592
vn -0.1488 0.9213 -0.3592
vn -0.1046 -0.9619 -0.2526
vn -0.2081 0.8392 -0.5024
vn -0.0697 -0.9833 -0.1682
vn -0.2879 0.6588 -0.6950
vn -0.0400 -0.9945 -0.0965
vn -0.3681 0.2735 -0.8886
vn -0.0130 0.9994 -0.0315
vn -0.0130 -0.9994 -0.0315
vn -0.3681 -0.2735 -0.8886
vn -0.0400 0.9945 -0.0965
vn -0.2879 -0.6588 -0.6950
vn -0.0697 0.9833 -0.1682
vn -0.2081 -0.8392 -0.5024
vn -0.1046 0.9619 -0.2526
vn 0.0130 0.9994 -0.0315
vn 0.0130 -0.9994 -0.0315
vn 0.3681 -0.2735 -0.8886
vn 0.0400 0.9945 -0.0965
vn 0.2879 -0.6588 -0.6950
vn 0.0697 0.9833 -0.1682
vn 0.2081 -0.8392 -0.5024
vn 0.1046 0.9619 -0.2526
vn 0.1488 -0.9213 -0.3592
vn 0.1488 0.9213 -0.3592
vn 0.1046 -0.9619 -0.2526
vn 0.2081 0.8392 -0.5024
vn 0.0697 -0.9833 -0.1682
vn 0.2879 0.6588 -0.6950
vn 0.0400 -0.9945 -0.0965
vn 0.3681 0.2735 -0.8886
vn 0.3592 0.9213 -0.1488
vn 0.2526 -0.9619 -0.1046
vn 0.5024 0.8392 -0.2081
vn 0.1682 -0.9833 -0.0697
vn 0.6950 0.6588 -0.2879
vn 0.0965 -0.9945 -0.0400
vn 0.8886 0.2735 -0.3681
vn 0.0315 0.9994 -0.0130
vn 0.0315 -0.9994 -0.0130
vn 0.8886 -0.2735 -0.3681
vn 0.0965 0.9945 -0.0400
vn 0.6950 -0.6588 -0.2879
vn 0.1682 0.9833 -0.0697
vn 0.5024 -0.8392 -0.2081
vn 0.2526 0.9619 -0.1046
vn 0.3592 -0.9213 -0.1488
vn 0.8886 -0.2735 0.3681
vn 0.0965 0.9945 0.0400
vn 0.6950 -0.6588 0.2879
vn 0.1682 0.9833 0.0697
vn 0.5024 -0.8392 0.2081
vn 0.2526 0.9619 0.1046
vn 0.3592 -0.9213 0.1488
vn 0.3592 0.9213 0.1488
vn 0.2526 -0.9619 0.1046
vn 0.5024 0.8392 0.2081
vn 0.1682 -0.9833 0.0697
vn 0.6950 0.6588 0.2879
vn 0.0965 -0.9945 0.0400
vn 0.8886 0.2735 0.3681
vn 0.0315 0.9994 0.0130
vn 0.0315 -0.9994 0.0130
vn 0.1046 -0.9619 0.2526
vn 0.2081 0.8392 0.5024
vn 0.0697 -0.9833 0.1682
vn 0.2879 0.6588 0.6950
vn 0.0400 -0.9945 0.0965
vn 0.3681 0.2735 0.8886
vn 0.0130 0.9994 0.0315
vn 0.0130 -0.9994 0.0315
vn 0.3681 -0.2735 0.8886
vn 0.0400 0.9945 0.0965
vn 0.2879 -0.6588 0.6950
vn 0.0697 0.9833 0.1682
vn 0.2081 -0.8392 0.5024
vn 0.1046 0.9619 0.2526
vn 0.1488 -0.9213 0.3592
vn 0.1488 0.9213 0.3592
vn -0.0400 0.9945 0.0965
vn -0.2879 -0.6588 0.6950
vn -0.0697 0.9833 0.1682
vn -0.2081 -0.8392 0.5024
vn -0.1046 0.9619 0.2526
vn -0.1488 -0.9213 0.3592
vn -0.1488 0.9213 0.3592
vn -0.1046 -0.9619 0.2526
vn -0.2081 0.8392 0.5024
vn -0.0697 -0.9833 0.1682
vn -0.2879 0.6588 0.6950
vn -0.0400 -0.9945 0.0965
vn -0.3681 0.2735 0.8886
vn -0.0130 0.9994 0.0315
vn -0.0130 -0.9994 0.0315
vn -0.3681 -0.2735 0.8886
vn -0.5024 0.8392 0.2081
vn -0.1682 -0.9833 0.0697
vn -0.6950 0.6588 0.2879
vn -0.0965 -0.9945 0.0400
vn -0.8886 0.2735 0.3681
vn -0.0315 0.9994 0.0130
vn -0.0315 -0.9994 0.0130
vn -0.8886 -0.2735 0.3681
vn -0.0965 0.9945 0.0400
vn -0.6950 -0.6588 0.2879
vn -0.1682 0.9833 0.0697
vn -0.5024 -0.8392 0.2081
vn -0.2526 0.9619 0.1046
vn -0.3592 -0.9213 0.1488
vn -0.3592 0.9213 0.1488
vn -0.2526 -0.9619 0.1046
vn -0.8660 0.5000 -0.0000
vn -0.0000 1.0000 -0.0000
vn 0.8660 0.5000 -0.0000
vn 0.8660 -0.5000 -0.0000
vn -0.0000 -0.0000 1.0000
vn -0.0000 -1.0000 -0.0000
vn -0.8660 -0.5000 -0.0000
vn -0.0000 -0.0000 -1.0000
vn -0.8887 -0.2735 -0.3681
vn 0.3681 0.2735 -0.8887
vt 0.750000 0.187500
vt 0.625000 0.250000
vt 0.625000 0.187500
vt 0.750000 0.625000
vt 0.625000 0.687500
vt 0.625000 0.625000
vt 0.625000 0.125000
vt 0.750000 0.125000
vt 0.625000 0.562500
vt 0.750000 0.562500
vt 0.625000 0.062500
vt 0.750000 0.062500
vt 0.750000 0.500000
vt 0.625000 0.500000
vt 0.750000 0.937500
vt 0.687500 1.000000
vt 0.625000 0.937500
vt 0.687500 0.000000
vt 0.625000 0.437500
vt 0.750000 0.437500
vt 0.625000 0.875000
vt 0.750000 0.875000
vt 0.625000 0.375000
vt 0.750000 0.375000
vt 0.625000 0.812500
vt 0.750000 0.812500
vt 0.625000 0.312500
vt 0.750000 0.312500
vt 0.625000 0.750000
vt 0.750000 0.750000
vt 0.750000 0.250000
vt 0.750000 0.687500
vt 0.500000 0.250000
vt 0.500000 0.687500
vt 0.500000 0.187500
vt 0.500000 0.625000
vt 0.500000 0.125000
vt 0.500000 0.562500
vt 0.500000 0.062500
vt 0.500000 0.500000
vt 0.562500 1.000000
vt 0.500000 0.937500
vt 0.562500 0.000000
vt 0.500000 0.437500
vt 0.500000 0.875000
vt 0.500000 0.375000
vt 0.500000 0.812500
vt 0.500000 0.312500
vt 0.500000 0.750000
vt 0.437500 1.000000
vt 0.375000 0.937500
vt 0.437500 0.000000
vt 0.375000 0.062500
vt 0.375000 0.437500
vt 0.375000 0.875000
vt 0.375000 0.375000
vt 0.375000 0.812500
vt 0.375000 0.312500
vt 0.375000 0.750000
vt 0.375000 0.250000
vt 0.375000 0.687500
vt 0.375000 0.187500
vt 0.375000 0.625000
vt 0.375000 0.125000
vt 0.375000 0.562500
vt 0.375000 0.500000
vt 0.250000 0.687500
vt 0.250000 0.187500
vt 0.250000 0.625000
vt 0.250000 0.125000
vt 0.250000 0.562500
vt 0.250000 0.062500
vt 0.250000 0.500000
vt 0.312500 1.000000
vt 0.250000 0.937500
vt 0.312500 0.000000
vt 0.250000 0.437500
vt 0.250000 0.875000
vt 0.250000 0.375000
vt 0.250000 0.812500
vt 0.250000 0.312500
vt 0.250000 0.750000
vt 0.250000 0.250000
vt 0.125000 0.437500
vt 0.125000 0.875000
vt 0.125000 0.375000
vt 0.125000 0.812500
vt 0.125000 0.312500
vt 0.125000 0.750000
vt 0.125000 0.250000
vt 0.125000 0.687500
vt 0.125000 0.187500
vt 0.125000 0.625000
vt 0.125000 0.125000
vt 0.125000 0.562500
vt 0.125000 0.062500
vt 0.125000 0.500000
vt 0.187500 1.000000
vt 0.125000 0.937500
vt 0.187500 0.000000
vt 0.000000 0.187500
vt 0.000000 0.625000
vt 0.000000 0.125000
vt 0.000000 0.562500
vt 0.000000 0.062500
vt 0.000000 0.500000
vt 0.062500 1.000000
vt 0.000000 0.937500
vt 0.062500 0.000000
vt 0.000000 0.437500
vt 0.000000 0.875000
vt 0.000000 0.375000
vt 0.000000 0.812500
vt 0.000000 0.312500
vt 0.000000 0.750000
vt 0.000000 0.250000
vt 0.000000 0.687500
vt 1.000000 0.937500
vt 0.875000 0.875000
vt 1.000000 0.875000
vt 1.000000 0.375000
vt 0.875000 0.437500
vt 0.875000 0.375000
vt 0.875000 0.812500
vt 1.000000 0.812500
vt 0.875000 0.312500
vt 1.000000 0.312500
vt 0.875000 0.750000
vt 1.000000 0.750000
vt 0.875000 0.250000
vt 1.000000 0.250000
vt 1.000000 0.687500
vt 0.875000 0.687500
vt 0.875000 0.187500
vt 1.000000 0.187500
vt 0.875000 0.625000
vt 1.000000 0.625000
vt 0.875000 0.125000
vt 1.000000 0.125000
vt 0.875000 0.562500
vt 1.000000 0.562500
vt 0.875000 0.062500
vt 1.000000 0.062500
vt 1.000000 0.500000
vt 0.875000 0.500000
vt 0.937500 1.000000
vt 0.875000 0.937500
vt 0.937500 0.000000
vt 1.000000 0.437500
vt 0.812500 1.000000
vt 0.812500 0.000000
vt 1.000000 1.000000
vt 0.833333 0.500000
vt 0.833333 1.000000
vt 0.666667 0.500000
vt 0.666667 1.000000
vt 0.500000 1.000000
vt 0.333333 0.500000
vt 0.250000 0.490000
vt 0.042154 0.130000
vt 0.457846 0.130000
vt 0.333333 1.000000
vt 0.166667 0.500000
vt 0.166667 1.000000
vt 0.957846 0.370000
vt 0.750000 0.010000
vt 0.542154 0.370000
vt 0.457846 0.370000
vt 0.042154 0.370000
vt 0.250000 0.010000
vt -0.000000 1.000000
vt 0.750000 0.490000
vt 0.957846 0.130000
vt 0.542154 0.130000
s 0
usemtl マテリアル
f 120/1/1 12/2/1 13/3/1
f 113/4/2 5/5/2 6/6/2
f 120/1/3 14/7/3 121/8/3
f 113/4/4 7/9/4 114/10/4
f 121/8/5 15/11/5 122/12/5
f 115/13/6 7/9/6 8/14/6
f 108/15/7 107/16/7 1/17/7
f 106/18/8 122/12/8 15/11/8
f 115/13/9 9/19/9 116/20/9
f 108/15/10 2/21/10 109/22/10
f 116/20/11 10/23/11 117/24/11
f 109/22/12 3/25/12 110/26/12
f 117/24/13 11/27/13 118/28/13
f 110/26/14 4/29/14 111/30/14
f 118/28/15 12/2/15 119/31/15
f 112/32/16 4/29/16 5/5/16
f 11/27/17 27/33/17 12/2/17
f 4/29/18 20/34/18 5/5/18
f 12/2/19 28/35/19 13/3/19
f 5/5/20 21/36/20 6/6/20
f 13/3/21 29/37/21 14/7/21
f 6/6/22 22/38/22 7/9/22
f 14/7/23 30/39/23 15/11/23
f 7/9/24 23/40/24 8/14/24
f 1/17/25 107/41/25 16/42/25
f 106/43/26 15/11/26 30/39/26
f 8/14/27 24/44/27 9/19/27
f 1/17/28 17/45/28 2/21/28
f 9/19/29 25/46/29 10/23/29
f 3/25/30 17/45/30 18/47/30
f 10/23/31 26/48/31 11/27/31
f 3/25/32 19/49/32 4/29/32
f 16/42/33 107/50/33 31/51/33
f 106/52/34 30/39/34 45/53/34
f 23/40/35 39/54/35 24/44/35
f 16/42/36 32/55/36 17/45/36
f 24/44/37 40/56/37 25/46/37
f 17/45/38 33/57/38 18/47/38
f 26/48/39 40/56/39 41/58/39
f 18/47/40 34/59/40 19/49/40
f 26/48/41 42/60/41 27/33/41
f 19/49/42 35/61/42 20/34/42
f 27/33/43 43/62/43 28/35/43
f 20/34/44 36/63/44 21/36/44
f 28/35/45 44/64/45 29/37/45
f 21/36/46 37/65/46 22/38/46
f 29/37/47 45/53/47 30/39/47
f 22/38/48 38/66/48 23/40/48
f 34/59/49 50/67/49 35/61/49
f 42/60/50 58/68/50 43/62/50
f 35/61/51 51/69/51 36/63/51
f 43/62/52 59/70/52 44/64/52
f 36/63/53 52/71/53 37/65/53
f 44/64/54 60/72/54 45/53/54
f 37/65/55 53/73/55 38/66/55
f 31/51/56 107/74/56 46/75/56
f 106/76/57 45/53/57 60/72/57
f 38/66/58 54/77/58 39/54/58
f 31/51/59 47/78/59 32/55/59
f 39/54/60 55/79/60 40/56/60
f 33/57/61 47/78/61 48/80/61
f 40/56/62 56/81/62 41/58/62
f 33/57/63 49/82/63 34/59/63
f 41/58/64 57/83/64 42/60/64
f 53/73/65 69/84/65 54/77/65
f 46/75/66 62/85/66 47/78/66
f 55/79/67 69/84/67 70/86/67
f 47/78/68 63/87/68 48/80/68
f 55/79/69 71/88/69 56/81/69
f 48/80/70 64/89/70 49/82/70
f 56/81/71 72/90/71 57/83/71
f 50/67/72 64/89/72 65/91/72
f 57/83/73 73/92/73 58/68/73
f 50/67/74 66/93/74 51/69/74
f 58/68/75 74/94/75 59/70/75
f 51/69/76 67/95/76 52/71/76
f 59/70/77 75/96/77 60/72/77
f 53/73/78 67/95/78 68/97/78
f 46/75/79 107/98/79 61/99/79
f 106/100/80 60/72/80 75/96/80
f 72/90/81 88/101/81 73/92/81
f 65/91/82 81/102/82 66/93/82
f 73/92/83 89/103/83 74/94/83
f 66/93/84 82/104/84 67/95/84
f 74/94/85 90/105/85 75/96/85
f 67/95/86 83/106/86 68/97/86
f 61/99/87 107/107/87 76/108/87
f 106/109/88 75/96/88 90/105/88
f 68/97/89 84/110/89 69/84/89
f 61/99/90 77/111/90 62/85/90
f 69/84/91 85/112/91 70/86/91
f 63/87/92 77/111/92 78/113/92
f 70/86/93 86/114/93 71/88/93
f 63/87/94 79/115/94 64/89/94
f 71/88/95 87/116/95 72/90/95
f 64/89/96 80/117/96 65/91/96
f 76/118/97 92/119/97 77/120/97
f 85/121/98 99/122/98 100/123/98
f 77/120/99 93/124/99 78/125/99
f 85/121/100 101/126/100 86/127/100
f 78/125/101 94/128/101 79/129/101
f 86/127/102 102/130/102 87/131/102
f 80/132/103 94/128/103 95/133/103
f 87/131/104 103/134/104 88/135/104
f 80/132/105 96/136/105 81/137/105
f 88/135/106 104/138/106 89/139/106
f 81/137/107 97/140/107 82/141/107
f 89/139/108 105/142/108 90/143/108
f 83/144/109 97/140/109 98/145/109
f 76/118/110 107/146/110 91/147/110
f 106/148/111 90/143/111 105/142/111
f 83/144/112 99/122/112 84/149/112
f 95/133/113 113/4/113 96/136/113
f 103/134/114 121/8/114 104/138/114
f 96/136/115 114/10/115 97/140/115
f 104/138/116 122/12/116 105/142/116
f 97/140/117 115/13/117 98/145/117
f 91/147/118 107/150/118 108/15/118
f 106/151/119 105/142/119 122/12/119
f 98/145/120 116/20/120 99/122/120
f 91/147/121 109/22/121 92/119/121
f 99/122/122 117/24/122 100/123/122
f 93/124/123 109/22/123 110/26/123
f 100/123/124 118/28/124 101/126/124
f 93/124/125 111/30/125 94/128/125
f 101/126/126 119/31/126 102/130/126
f 94/128/127 112/32/127 95/133/127
f 102/130/128 120/1/128 103/134/128
f 124/152/129 125/153/129 123/144/129
f 126/154/130 127/155/130 125/153/130
f 128/156/131 129/40/131 127/155/131
f 130/157/132 131/158/132 129/40/132
f 124/159/133 132/160/133 128/161/133
f 132/162/134 133/163/134 131/158/134
f 134/164/135 123/106/135 133/163/135
f 125/165/136 129/166/136 133/167/136
f 136/152/129 137/153/129 135/144/129
f 138/154/130 139/155/130 137/153/130
f 140/156/131 141/40/131 139/155/131
f 142/157/132 143/158/132 141/40/132
f 136/159/133 144/160/133 140/161/133
f 144/162/134 145/163/134 143/158/134
f 146/164/135 135/106/135 145/163/135
f 137/165/136 141/166/136 145/167/136
f 120/1/1 119/31/1 12/2/1
f 113/4/2 112/32/2 5/5/2
f 120/1/3 13/3/3 14/7/3
f 113/4/4 6/6/4 7/9/4
f 121/8/5 14/7/5 15/11/5
f 115/13/6 114/10/6 7/9/6
f 115/13/137 8/14/137 9/19/137
f 108/15/10 1/17/10 2/21/10
f 116/20/11 9/19/11 10/23/11
f 109/22/12 2/21/12 3/25/12
f 117/24/13 10/23/13 11/27/13
f 110/26/14 3/25/14 4/29/14
f 118/28/15 11/27/15 12/2/15
f 112/32/16 111/30/16 4/29/16
f 11/27/17 26/48/17 27/33/17
f 4/29/18 19/49/18 20/34/18
f 12/2/19 27/33/19 28/35/19
f 5/5/20 20/34/20 21/36/20
f 13/3/21 28/35/21 29/37/21
f 6/6/22 21/36/22 22/38/22
f 14/7/23 29/37/23 30/39/23
f 7/9/24 22/38/24 23/40/24
f 8/14/27 23/40/27 24/44/27
f 1/17/28 16/42/28 17/45/28
f 9/19/29 24/44/29 25/46/29
f 3/25/30 2/21/30 17/45/30
f 10/23/31 25/46/31 26/48/31
f 3/25/32 18/47/32 19/49/32
f 23/40/35 38/66/35 39/54/35
f 16/42/36 31/51/36 32/55/36
f 24/44/37 39/54/37 40/56/37
f 17/45/38 32/55/38 33/57/38
f 26/48/39 25/46/39 40/56/39
f 18/47/40 33/57/40 34/59/40
f 26/48/41 41/58/41 42/60/41
f 19/49/42 34/59/42 35/61/42
f 27/33/43 42/60/43 43/62/43
f 20/34/44 35/61/44 36/63/44
f 28/35/45 43/62/45 44/64/45
f 21/36/46 36/63/46 37/65/46
f 29/37/47 44/64/47 45/53/47
f 22/38/138 37/65/138 38/66/138
f 34/59/49 49/82/49 50/67/49
f 42/60/50 57/83/50 58/68/50
f 35/61/51 50/67/51 51/69/51
f 43/62/52 58/68/52 59/70/52
f 36/63/53 51/69/53 52/71/53
f 44/64/54 59/70/54 60/72/54
f 37/65/55 52/71/55 53/73/55
f 38/66/58 53/73/58 54/77/58
f 31/51/59 46/75/59 47/78/59
f 39/54/60 54/77/60 55/79/60
f 33/57/61 32/55/61 47/78/61
f 40/56/62 55/79/62 56/81/62
f 33/57/63 48/80/63 49/82/63
f 41/58/64 56/81/64 57/83/64
f 53/73/65 68/97/65 69/84/65
f 46/75/66 61/99/66 62/85/66
f 55/79/67 54/77/67 69/84/67
f 47/78/68 62/85/68 63/87/68
f 55/79/69 70/86/69 71/88/69
f 48/80/70 63/87/70 64/89/70
f 56/81/71 71/88/71 72/90/71
f 50/67/72 49/82/72 64/89/72
f 57/83/73 72/90/73 73/92/73
f 50/67/74 65/91/74 66/93/74
f 58/68/75 73/92/75 74/94/75
f 51/69/76 66/93/76 67/95/76
f 59/70/77 74/94/77 75/96/77
f 53/73/78 52/71/78 67/95/78
f 72/90/81 87/116/81 88/101/81
f 65/91/82 80/117/82 81/102/82
f 73/92/83 88/101/83 89/103/83
f 66/93/84 81/102/84 82/104/84
f 74/94/85 89/103/85 90/105/85
f 67/95/86 82/104/86 83/106/86
f 68/97/89 83/106/89 84/110/89
f 61/99/90 76/108/90 77/111/90
f 69/84/91 84/110/91 85/112/91
f 63/87/92 62/85/92 77/111/92
f 70/86/93 85/112/93 86/114/93
f 63/87/94 78/113/94 79/115/94
f 71/88/95 86/114/95 87/116/95
f 64/89/96 79/115/96 80/117/96
f 76/118/97 91/147/97 92/119/97
f 85/121/98 84/149/98 99/122/98
f 77/120/99 92/119/99 93/124/99
f 85/121/100 100/123/100 101/126/100
f 78/125/101 93/124/101 94/128/101
f 86/127/102 101/126/102 102/130/102
f 80/132/103 79/129/103 94/128/103
f 87/131/104 102/130/104 103/134/104
f 80/132/105 95/133/105 96/136/105
f 88/135/106 103/134/106 104/138/106
f 81/137/107 96/136/107 97/140/107
f 89/139/108 104/138/108 105/142/108
f 83/144/109 82/141/109 97/140/109
f 83/144/112 98/145/112 99/122/112
f 95/133/113 112/32/113 113/4/113
f 103/134/114 120/1/114 121/8/114
f 96/136/115 113/4/115 114/10/115
f 104/138/116 121/8/116 122/12/116
f 97/140/117 114/10/117 115/13/117
f 98/145/120 115/13/120 116/20/120
f 91/147/121 108/15/121 109/22/121
f 99/122/122 116/20/122 117/24/122
f 93/124/123 92/119/123 109/22/123
f 100/123/124 117/24/124 118/28/124
f 93/124/125 110/26/125 111/30/125
f 101/126/126 118/28/126 119/31/126
f 94/128/127 111/30/127 112/32/127
f 102/130/128 119/31/128 120/1/128
f 124/152/129 126/154/129 125/153/129
f 126/154/130 128/156/130 127/155/130
f 128/156/131 130/157/131 129/40/131
f 130/157/132 132/162/132 131/158/132
f 128/161/133 126/168/133 124/159/133
f 124/159/133 134/169/133 132/160/133
f 132/160/133 130/170/133 128/161/133
f 132/162/134 134/164/134 133/163/134
f 134/164/135 124/171/135 123/106/135
f 133/167/136 123/172/136 125/165/136
f 125/165/136 127/173/136 129/166/136
f 129/166/136 131/174/136 133/167/136
f 136/152/129 138/154/129 137/153/129
f 138/154/130 140/156/130 139/155/130
f 140/156/131 142/157/131 141/40/131
f 142/157/132 144/162/132 143/158/132
f 140/161/133 138/168/133 136/159/133
f 136/159/133 146/169/133 144/160/133
f 144/160/133 142/170/133 140/161/133
f 144/162/134 146/164/134 145/163/134
f 146/164/135 136/171/135 135/106/135
f 145/167/136 135/172/136 137/165/136
f 137/165/136 139/173/136 141/166/136
f 141/166/136 143/174/136 145/167/136
